<svg width="36" height="36" viewBox="0 0 36 36" fill="none" xmlns="http://www.w3.org/2000/svg">
<path d="M10.472 9.93686L28.067 7.36524C27.0839 6.51451 25.8033 6 24.4053 6H11.5946C8.50024 6 6 8.50603 6 11.5931V24.4003C6 27.177 8.02533 29.4853 10.6771 29.9204L8.35611 12.793C8.15838 11.4213 9.12115 10.1355 10.4738 9.93686H10.472Z" fill="#118ACB"/>
<path d="M28.0671 7.36462L10.472 9.93623C9.11936 10.1348 8.15659 11.4206 8.35432 12.7923L10.6762 29.9198C10.9728 29.966 11.2833 29.9992 11.5937 29.9992H24.4054C27.4998 29.9992 30 27.4932 30 24.4062V11.5924C30 9.9039 29.2544 8.39364 28.0671 7.36462Z" fill="white"/>
<path d="M28.067 7.36462L28.007 7.37756C29.2146 8.43336 29.9399 9.98981 29.9399 11.5924V24.3803C29.9399 27.4396 27.4461 29.9327 24.386 29.9327H11.5872C11.2971 29.9327 10.9608 29.9004 10.6633 29.8542L10.6707 29.9198C10.9811 29.9724 11.2777 29.9992 11.5808 29.9992H24.3721C27.4729 29.9992 29.9926 27.4794 29.9926 24.3803V11.5924C30 9.95656 29.2996 8.43336 28.067 7.36462Z" fill="#C7C7C7" stroke="#C7C7C7" stroke-width="0.0599996"/>
<path d="M20.949 13.9668C20.8362 13.855 20.7115 13.795 20.5332 13.795C20.2957 13.795 20.1174 13.9077 20.0121 14.1451C19.7746 13.8615 19.4447 13.7294 19.029 13.7294C18.5272 13.7294 18.1124 13.9271 17.7631 14.2966C17.412 14.6919 17.2614 15.1473 17.2614 15.6951C17.2614 16.2419 17.4323 16.7167 17.7622 17.0926C18.1124 17.4889 18.5272 17.6598 19.029 17.6598C19.4447 17.6598 19.7681 17.5286 20.0121 17.2441C20.1239 17.4824 20.2957 17.5942 20.5332 17.5942C20.7041 17.5942 20.8362 17.5286 20.949 17.4224C21.0607 17.3171 21.1005 17.185 21.1005 17.0067V14.3233C21.1199 14.231 21.0543 14.0786 20.949 13.9668ZM19.7681 16.3869C19.636 16.5587 19.4383 16.6511 19.2008 16.6511C18.9634 16.6511 18.7647 16.5652 18.6335 16.3869C18.5014 16.216 18.4154 15.9916 18.4154 15.708C18.4154 15.4438 18.481 15.2267 18.6335 15.0549C18.7647 14.8831 18.9634 14.7917 19.2008 14.7917C19.4383 14.7917 19.6351 14.8767 19.7681 15.0549C19.8993 15.2267 19.9853 15.4503 19.9853 15.708C19.9659 15.9722 19.8993 16.216 19.7681 16.3869ZM22.407 17.4557C22.2942 17.5674 22.1695 17.6275 21.9912 17.6275C21.8193 17.6275 21.6872 17.561 21.5754 17.4557C21.4636 17.3439 21.4239 17.2183 21.4239 17.04V12.2385C21.4239 12.087 21.4701 11.955 21.5754 11.8229C21.6872 11.712 21.8129 11.652 21.9912 11.652C22.1621 11.652 22.2942 11.7176 22.407 11.8238C22.5178 11.9356 22.5585 12.0612 22.5585 12.2395V17.04C22.5585 17.2183 22.5188 17.3503 22.407 17.4557ZM26.1804 14.316C25.8108 13.9206 25.3489 13.7488 24.7815 13.7488C24.2142 13.7488 23.7587 13.9474 23.3827 14.316C23.0334 14.6854 22.8357 15.1667 22.8357 15.7348C22.8357 16.3019 23.0066 16.7564 23.3827 17.1527C23.7329 17.5222 24.2142 17.7198 24.7815 17.7198C25.3489 17.7198 25.8044 17.5212 26.1795 17.1527C26.5297 16.7832 26.7015 16.3019 26.7015 15.7542C26.7274 15.1667 26.5556 14.6854 26.1795 14.316H26.1804ZM25.3747 16.3869C25.2435 16.5587 25.0449 16.6511 24.8074 16.6511C24.57 16.6511 24.3732 16.5652 24.2401 16.3869C24.1089 16.216 24.023 15.9916 24.023 15.708C24.023 15.4438 24.0886 15.2267 24.2401 15.0549C24.3722 14.8831 24.57 14.7917 24.8074 14.7917C25.0449 14.7917 25.2435 14.8767 25.3747 15.0549C25.5069 15.2267 25.5928 15.4503 25.5928 15.708C25.5734 15.9722 25.5069 16.216 25.3747 16.3869Z" fill="#118ACB"/>
<path d="M16.6274 13.8806C17.0229 13.3596 17.2409 13.0105 17.2409 12.8322C17.2409 12.4165 16.9776 12.1995 16.4556 12.1995H13.6855C13.4665 12.1995 13.2891 12.2456 13.1838 12.351C13.072 12.4627 13.0119 12.5883 13.0119 12.7463C13.0119 12.9181 13.0785 13.0502 13.1838 13.1426C13.2965 13.2534 13.4675 13.2941 13.6855 13.2941H15.5852L13.1441 16.4328C12.9925 16.6314 12.9066 16.8291 12.9066 16.9806C12.9066 17.436 13.2106 17.6595 13.8241 17.6595H16.6801C17.1356 17.6595 17.3601 17.4618 17.3601 17.0924C17.3601 16.697 17.1421 16.5252 16.6801 16.5252H14.5827L16.6265 13.8806H16.6274Z" fill="#118ACB"/>
<path d="M15.2678 20.6676H14.5489V22.152H15.2678C15.4858 22.152 15.6641 22.0855 15.7889 21.934C15.921 21.8019 15.9875 21.6042 15.9875 21.413C15.9875 21.195 15.921 21.0177 15.7889 20.8921C15.6641 20.7341 15.4932 20.6676 15.2678 20.6676ZM18.8306 22.0393C18.6125 22.0393 18.4342 22.1252 18.3094 22.2767C18.1773 22.4485 18.1117 22.6462 18.1117 22.8901C18.1117 23.1348 18.1764 23.3454 18.3094 23.5034C18.4416 23.6752 18.6125 23.7408 18.8306 23.7408C19.0477 23.7408 19.226 23.6558 19.3517 23.5034C19.4838 23.3325 19.5494 23.1339 19.5494 22.8901C19.5494 22.6527 19.4838 22.4356 19.3517 22.2767C19.2196 22.1252 19.0477 22.0393 18.8306 22.0393Z" fill="#39B54A"/>
<path d="M23.8518 18.5502H13.5256C13.1773 18.5502 12.8936 18.8338 12.8936 19.1838V25.2249C12.8936 25.5741 13.1773 25.8576 13.5266 25.8576H21.6667C21.5817 25.7717 21.5355 25.6868 21.5355 25.5741C21.5355 25.4882 21.5558 25.4032 21.6011 25.2905L21.9975 24.4407L20.9284 21.7758C20.909 21.7093 20.8822 21.6243 20.8822 21.5384C20.8822 21.4257 20.9284 21.3204 21.0338 21.2548C21.1197 21.1689 21.2324 21.1227 21.3377 21.1227C21.5752 21.1227 21.7332 21.2345 21.8191 21.4719L22.4724 23.286L23.1718 21.4719C23.2577 21.2548 23.4093 21.1227 23.6532 21.1227C23.765 21.1227 23.8713 21.1689 23.9563 21.2548C24.0422 21.3407 24.1087 21.4257 24.1087 21.5384C24.1087 21.6243 24.0884 21.7093 24.0625 21.7758L22.4918 25.5944C22.4456 25.7062 22.4068 25.7921 22.3402 25.8576H23.8445C24.1937 25.8576 24.4774 25.5741 24.4774 25.2249V19.1838C24.4774 18.8144 24.1937 18.5502 23.8509 18.5502H23.8518ZM16.5618 22.6062C16.2319 22.9101 15.8226 23.0422 15.3412 23.0422H14.5559V24.1765C14.5559 24.3474 14.5097 24.4795 14.4043 24.5718C14.3184 24.6577 14.1863 24.7233 14.0347 24.7233C13.8832 24.7233 13.7511 24.6771 13.6652 24.5718C13.5802 24.4859 13.5136 24.3344 13.5136 24.1765V20.2516C13.5136 19.8822 13.6855 19.7048 14.0615 19.7048H15.3089C15.8291 19.7048 16.2449 19.8563 16.5941 20.1602C16.924 20.4632 17.0958 20.8788 17.0958 21.3601C17.0829 21.9079 16.911 22.3032 16.5618 22.6071V22.6062ZM20.5995 24.1562C20.5995 24.3077 20.5533 24.4204 20.447 24.5257C20.3352 24.6374 20.229 24.6771 20.0775 24.6771C19.8603 24.6771 19.682 24.5654 19.5767 24.3474C19.3586 24.6116 19.0556 24.7437 18.6592 24.7437C18.2046 24.7437 17.8091 24.5718 17.5042 24.2227C17.2012 23.8726 17.0238 23.4375 17.0238 22.9166C17.0238 22.3956 17.1753 21.9799 17.5042 21.6104C17.8091 21.2613 18.2046 21.0895 18.6592 21.0895C19.0556 21.0895 19.3392 21.2215 19.5767 21.4857C19.6885 21.2677 19.84 21.156 20.0775 21.156C20.229 21.156 20.3611 21.2021 20.447 21.3074C20.5588 21.4192 20.5986 21.5245 20.5986 21.6769V24.1562H20.5995Z" fill="#39B54A"/>
</svg>
