<svg width="36" height="36" viewBox="0 0 36 36" fill="none" xmlns="http://www.w3.org/2000/svg">
<path d="M6.00059 17.9951C6.00059 15.5026 6.00059 13.0095 6.00059 10.517C6.00059 9.27757 6.43506 8.21181 7.30104 7.32921C7.98091 6.63629 8.80895 6.2107 9.77036 6.06074C10.0128 6.0228 10.26 6.00324 10.5053 6.00265C15.5003 5.99968 20.4946 5.99909 25.4896 6.00146C26.7497 6.00206 27.8297 6.45491 28.714 7.34937C29.4117 8.05473 29.826 8.90769 29.9552 9.89343C29.9831 10.1039 29.9967 10.3178 29.9967 10.5306C29.9991 15.5115 29.9997 20.4917 29.9973 25.4726C29.9967 26.7535 29.5385 27.8489 28.621 28.7427C27.9494 29.3971 27.1427 29.799 26.2145 29.9413C25.9673 29.9792 25.7154 29.997 25.4653 29.9976C20.468 30.0005 15.4712 30 10.4739 30C8.36203 30 6.52042 28.5015 6.09187 26.4334C6.03082 26.1347 6 25.8341 6 25.5301C6.00119 23.018 6.00059 20.5065 6.00059 17.9951ZM18.1053 19.8563C19.797 19.8563 21.4887 19.8563 23.1803 19.8557C23.2396 19.8557 23.2994 19.8563 23.3575 19.848C23.9603 19.7632 24.4013 19.2553 24.4013 18.6453C24.4013 16.3781 24.4019 14.1102 24.4013 11.843C24.4013 11.1714 23.8625 10.6361 23.1898 10.6361C20.0436 10.6361 16.8968 10.6361 13.7505 10.6361C13.7102 10.6361 13.6699 10.6355 13.6296 10.6344C13.3878 10.6255 13.194 10.4518 13.1383 10.2165C13.0938 10.0298 13.1963 9.86676 13.4228 9.86735C16.2424 9.87209 19.062 9.87031 21.881 9.87031C22.0589 9.87031 22.1543 9.77607 22.1543 9.60002C22.1543 9.31787 22.1549 9.03632 22.1543 8.75417C22.1537 8.42816 21.9012 8.19107 21.5758 8.21418C21.3517 8.23019 21.1277 8.2533 20.9042 8.27286C20.612 8.29835 20.3198 8.32325 20.0276 8.34933C19.6838 8.38015 19.3394 8.41275 18.9956 8.44298C18.7058 8.46906 18.4159 8.49277 18.1261 8.51885C17.7823 8.54968 17.4385 8.58287 17.0941 8.61369C16.8019 8.63977 16.5097 8.66408 16.2175 8.69016C15.8737 8.72098 15.5299 8.75358 15.1856 8.7844C14.8418 8.81523 14.4974 8.84368 14.153 8.8745C13.7571 8.91007 13.3617 8.95452 12.9658 8.98179C12.3167 9.02684 11.8171 9.55023 11.8171 10.1987C11.8171 13.0136 11.8165 15.8286 11.8182 18.6429C11.8182 18.7342 11.8295 18.8279 11.8503 18.9168C11.9842 19.4835 12.4572 19.8551 13.0375 19.8551C14.7268 19.8563 16.4161 19.8563 18.1053 19.8563ZM12.6001 24.9243C12.638 24.9243 12.6659 24.9243 12.6937 24.9243C13.0754 24.9243 13.4566 24.9296 13.8383 24.9219C14.0054 24.9183 14.1744 24.9023 14.3374 24.8674C15.2946 24.6617 15.9431 23.7489 15.8103 22.7904C15.6781 21.8396 14.8661 21.1775 13.945 21.1574C13.3291 21.1437 12.7127 21.1544 12.0968 21.155C11.9356 21.155 11.8526 21.2392 11.8526 21.4004C11.8526 23.1917 11.8526 24.983 11.8526 26.7742C11.8526 26.9266 11.9344 27.0101 12.0891 27.0137C12.1745 27.0155 12.2598 27.0149 12.3452 27.0143C12.5171 27.0131 12.6012 26.9283 12.6012 26.7553C12.6012 26.1773 12.6012 25.5988 12.6012 25.0209C12.6001 24.993 12.6001 24.9646 12.6001 24.9243ZM19.5777 26.7891C19.5777 25.603 19.5777 24.427 19.5777 23.2527C19.5694 23.2492 19.5652 23.2462 19.5611 23.2462C19.4354 23.2456 19.3104 23.2444 19.1847 23.2444C19.0152 23.2444 18.9381 23.3215 18.9375 23.491C18.9375 23.5722 18.9375 23.6534 18.9375 23.7477C18.8955 23.7157 18.8676 23.6943 18.8397 23.6724C18.3324 23.2824 17.7663 23.1603 17.1475 23.3173C16.2234 23.5521 15.6514 24.4845 15.8559 25.4091C16.0278 26.1862 16.732 26.7671 17.55 26.8009C18.0396 26.8211 18.4776 26.6752 18.8599 26.3664C18.8824 26.3486 18.9055 26.3315 18.9381 26.3071C18.9381 26.3664 18.9381 26.4091 18.9381 26.4518C18.9381 26.4968 18.9369 26.5419 18.9387 26.5869C18.9423 26.6901 19.017 26.7843 19.1136 26.7879C19.2653 26.7938 19.4188 26.7891 19.5777 26.7891ZM22.3351 25.3848C22.3131 25.3505 22.2965 25.325 22.2805 25.2995C21.8668 24.6344 21.4537 23.9688 21.0388 23.3043C21.0228 23.2782 20.9884 23.2468 20.9623 23.2462C20.7466 23.2415 20.5314 23.2421 20.3156 23.2444C20.2327 23.245 20.1817 23.3138 20.2012 23.3956C20.2084 23.4264 20.2279 23.4554 20.2451 23.4833C20.7714 24.3345 21.2978 25.1863 21.8271 26.0357C21.8668 26.0991 21.8656 26.1424 21.8283 26.2052C21.3855 26.955 20.9463 27.7066 20.5059 28.4582C20.4324 28.5839 20.4875 28.6793 20.6327 28.6793C20.7987 28.6799 20.9647 28.6764 21.13 28.6811C21.1923 28.6829 21.2267 28.6639 21.2593 28.6094C21.849 27.6219 22.4406 26.6361 23.0321 25.6498C23.4702 24.9195 23.9088 24.1893 24.3462 23.4584C24.4191 23.3363 24.3658 23.2432 24.2241 23.2432C24.0463 23.2432 23.8685 23.245 23.6912 23.2421C23.6432 23.2415 23.6154 23.2557 23.5899 23.2984C23.2206 23.9154 22.849 24.5313 22.4779 25.1477C22.4323 25.2248 22.386 25.3007 22.3351 25.3848Z" fill="#EE4D2D"/>
<path d="M18.1054 19.8563C16.4161 19.8563 14.7268 19.8563 13.0375 19.8563C12.4567 19.8563 11.9837 19.4847 11.8503 18.918C11.8296 18.8291 11.8183 18.7354 11.8183 18.6441C11.8165 15.8292 11.8171 13.0142 11.8171 10.1999C11.8171 9.55142 12.3168 9.02803 12.9658 8.98298C13.3624 8.95512 13.7571 8.91126 14.1531 8.87569C14.4968 8.84487 14.8412 8.81642 15.1856 8.7856C15.5294 8.75477 15.8732 8.72217 16.2175 8.69135C16.5098 8.66527 16.802 8.64097 17.0942 8.61488C17.438 8.58406 17.7818 8.55087 18.1261 8.52005C18.416 8.49396 18.7058 8.47026 18.9957 8.44417C19.3395 8.41335 19.6838 8.38075 20.0276 8.35052C20.3198 8.32444 20.6121 8.29954 20.9043 8.27406C21.1283 8.2545 21.3518 8.23197 21.5758 8.21537C21.9012 8.19166 22.1537 8.42936 22.1543 8.75537C22.1549 9.03751 22.1543 9.31907 22.1543 9.60121C22.1543 9.77726 22.0589 9.87151 21.8811 9.87151C19.0615 9.87151 16.2418 9.87328 13.4228 9.86854C13.1964 9.86795 13.0939 10.031 13.1383 10.2177C13.1946 10.453 13.3884 10.6267 13.6297 10.6356C13.67 10.6373 13.7103 10.6373 13.7506 10.6373C16.8968 10.6373 20.0436 10.6373 23.1898 10.6373C23.8632 10.6373 24.4014 11.1726 24.4014 11.8442C24.402 14.1114 24.402 16.3793 24.4014 18.6465C24.4014 19.2564 23.9604 19.7644 23.3576 19.8492C23.2995 19.8575 23.2396 19.8569 23.1804 19.8569C21.4887 19.8563 19.797 19.8563 18.1054 19.8563ZM18.2589 18.544C18.3324 18.5392 18.4515 18.5369 18.5683 18.5214C18.6827 18.506 18.7965 18.4817 18.9085 18.4527C19.3898 18.3276 19.7787 18.0721 20.0252 17.6311C20.1426 17.4207 20.2256 17.2002 20.2244 16.9483C20.2232 16.7657 20.2345 16.5849 20.1924 16.4053C20.1029 16.023 19.8676 15.7432 19.5617 15.515C19.1705 15.2228 18.7236 15.042 18.2702 14.8737C18.007 14.7765 17.7432 14.6769 17.489 14.5589C17.2685 14.4564 17.0782 14.3047 16.9425 14.096C16.8358 13.9324 16.7765 13.7522 16.8073 13.5572C16.8802 13.1014 17.259 12.7161 17.7089 12.6224C17.9193 12.5786 18.1285 12.5993 18.3377 12.6236C18.8001 12.6776 19.2209 12.8429 19.6014 13.1109C19.6655 13.1559 19.6909 13.1541 19.733 13.0877C19.7953 12.9899 19.8557 12.891 19.9168 12.792C19.9648 12.7137 19.9577 12.6669 19.8794 12.6201C19.7437 12.5389 19.608 12.4559 19.4657 12.3877C19.0152 12.172 18.5375 12.0771 18.039 12.0611C17.3538 12.0392 16.815 12.3018 16.4321 12.8708C16.2851 13.0889 16.1707 13.3308 16.1707 13.5957C16.1713 14.2418 16.4647 14.7267 17.0391 15.0254C17.4901 15.2602 17.9655 15.4409 18.4444 15.6117C18.7965 15.7373 19.1142 15.9228 19.3561 16.2174C19.5404 16.4421 19.6423 16.697 19.6014 16.9922C19.5534 17.3389 19.3519 17.5808 19.0526 17.7408C18.6821 17.9388 18.285 17.9903 17.8695 17.9334C17.2975 17.8552 16.802 17.6104 16.3598 17.2482C16.3023 17.2008 16.2673 17.202 16.2258 17.2619C16.1565 17.3608 16.0889 17.4604 16.0208 17.56C15.9425 17.6738 15.9443 17.6786 16.0492 17.7663C16.6751 18.292 17.4042 18.5297 18.2589 18.544Z" fill="white"/>
<path d="M12.6001 24.9243C12.6001 24.9646 12.6001 24.9925 12.6001 25.0209C12.6001 25.5989 12.6001 26.1774 12.6001 26.7553C12.6001 26.9284 12.5159 27.0131 12.344 27.0143C12.2586 27.0149 12.1733 27.0161 12.0879 27.0137C11.9338 27.0102 11.8514 26.9266 11.8514 26.7743C11.8514 24.983 11.8514 23.1917 11.8514 21.4004C11.8514 21.2392 11.935 21.155 12.0956 21.155C12.7115 21.1545 13.3279 21.1438 13.9438 21.1574C14.8655 21.1782 15.6769 21.8403 15.8091 22.7904C15.9425 23.7489 15.2934 24.6617 14.3362 24.8674C14.1732 24.9024 14.0036 24.9184 13.8371 24.9219C13.456 24.9296 13.0742 24.9243 12.6925 24.9243C12.6659 24.9243 12.638 24.9243 12.6001 24.9243ZM12.6042 21.9001C12.6042 22.6577 12.6042 23.4093 12.6042 24.1692C12.6356 24.1692 12.6635 24.1692 12.6913 24.1692C13.1009 24.1692 13.5111 24.1697 13.9207 24.1686C13.9959 24.1686 14.0718 24.1638 14.1471 24.1549C14.77 24.0814 15.2093 23.5154 15.1286 22.8912C15.0587 22.3512 14.578 21.9096 14.0333 21.8995C13.5715 21.8912 13.1098 21.8966 12.6475 21.896C12.6356 21.8966 12.6244 21.8983 12.6042 21.9001Z" fill="white"/>
<path d="M19.5777 26.7891C19.4195 26.7891 19.2653 26.7938 19.1124 26.7873C19.0158 26.7832 18.9411 26.6895 18.9376 26.5864C18.9358 26.5413 18.937 26.4963 18.937 26.4512C18.937 26.4086 18.937 26.3659 18.937 26.3066C18.9044 26.3309 18.8813 26.3481 18.8587 26.3659C18.4764 26.6747 18.039 26.8199 17.5488 26.8004C16.7302 26.7672 16.0261 26.1863 15.8548 25.4086C15.6509 24.4839 16.2223 23.5515 17.1463 23.3168C17.7651 23.1597 18.3318 23.2818 18.8386 23.6719C18.8664 23.6932 18.8943 23.7145 18.9364 23.7471C18.9364 23.6523 18.9364 23.5717 18.9364 23.4905C18.937 23.321 19.014 23.2439 19.1835 23.2439C19.3092 23.2439 19.4343 23.2451 19.5599 23.2457C19.5641 23.2457 19.5682 23.2486 19.5765 23.2522C19.5777 24.427 19.5777 25.603 19.5777 26.7891ZM18.7929 25.0091C18.7763 24.9214 18.7663 24.8313 18.7414 24.7459C18.6122 24.3008 18.2245 23.986 17.7598 23.9433C17.3485 23.906 16.9958 24.0269 16.7273 24.347C16.5275 24.5853 16.4256 24.8627 16.492 25.1768C16.639 25.8698 17.3568 26.2651 18.0236 26.0268C18.4669 25.8686 18.784 25.4442 18.7929 25.0091Z" fill="white"/>
<path d="M22.335 25.3849C22.386 25.3013 22.4322 25.2248 22.4785 25.1484C22.8495 24.5319 23.2211 23.9161 23.5904 23.299C23.6159 23.2563 23.6432 23.2421 23.6918 23.2427C23.8696 23.2457 24.0468 23.2433 24.2246 23.2439C24.3663 23.2439 24.4196 23.3369 24.3467 23.459C23.9093 24.1899 23.4707 24.9202 23.0327 25.6504C22.4411 26.6368 21.849 27.6225 21.2598 28.61C21.2272 28.6645 21.1922 28.6835 21.1306 28.6817C20.9646 28.6776 20.7992 28.6805 20.6333 28.6799C20.4881 28.6799 20.4329 28.5845 20.5064 28.4589C20.9462 27.7073 21.386 26.9557 21.8288 26.2058C21.8662 26.143 21.8673 26.0997 21.8276 26.0363C21.2983 25.1869 20.772 24.3351 20.2456 23.4839C20.2284 23.4561 20.2095 23.427 20.2018 23.3962C20.1828 23.3144 20.2338 23.2457 20.3162 23.2451C20.5319 23.2427 20.7471 23.2421 20.9628 23.2468C20.9889 23.2474 21.0233 23.2789 21.0393 23.3049C21.4542 23.9694 21.8673 24.6345 22.2811 25.3001C22.2965 25.325 22.3131 25.3505 22.335 25.3849Z" fill="white"/>
<path d="M18.2589 18.544C17.4041 18.5298 16.6751 18.2921 16.048 17.7675C15.9431 17.6798 15.9413 17.6751 16.0195 17.5613C16.0877 17.4617 16.1559 17.3621 16.2246 17.2631C16.2667 17.2032 16.3011 17.2027 16.3586 17.2495C16.8007 17.6116 17.2957 17.8564 17.8683 17.9347C18.2838 17.9916 18.6809 17.94 19.0513 17.7421C19.3507 17.582 19.5522 17.3402 19.6002 16.9934C19.6411 16.6976 19.5392 16.4433 19.3548 16.2187C19.1136 15.9241 18.7953 15.7386 18.4432 15.6129C17.9643 15.4416 17.4889 15.2608 17.0378 15.0267C16.4635 14.7279 16.1701 14.2431 16.1695 13.597C16.1695 13.332 16.2839 13.0902 16.4309 12.8721C16.8138 12.303 17.3526 12.041 18.0378 12.0624C18.5357 12.0784 19.014 12.1732 19.4645 12.389C19.6067 12.4571 19.7425 12.5401 19.8782 12.6213C19.957 12.6681 19.9636 12.715 19.9155 12.7932C19.8551 12.8922 19.7946 12.9912 19.7318 13.089C19.6897 13.1554 19.6642 13.1572 19.6002 13.1121C19.2197 12.8442 18.7988 12.6794 18.3365 12.6249C18.1273 12.6006 17.918 12.5798 17.7076 12.6237C17.2577 12.7173 16.879 13.1026 16.8061 13.5585C16.7753 13.7535 16.8345 13.9331 16.9412 14.0973C17.077 14.3059 17.2672 14.4576 17.4877 14.5602C17.742 14.6787 18.0058 14.7777 18.2689 14.8749C18.7224 15.0427 19.1693 15.2241 19.5605 15.5163C19.8663 15.7445 20.1011 16.0243 20.1912 16.4066C20.2332 16.5856 20.222 16.767 20.2232 16.9495C20.2244 17.2015 20.1414 17.422 20.024 17.6324C19.7774 18.0734 19.3886 18.3295 18.9073 18.4539C18.7953 18.483 18.6815 18.5073 18.5671 18.5227C18.4515 18.5369 18.333 18.5387 18.2589 18.544Z" fill="#EE4D2D"/>
<path d="M12.6041 21.9001C12.6237 21.8983 12.6355 21.8959 12.6474 21.8959C13.1091 21.8965 13.5715 21.8906 14.0332 21.8995C14.5779 21.9096 15.0592 22.3512 15.1286 22.8911C15.2092 23.5153 14.77 24.0814 14.147 24.1549C14.0723 24.1638 13.9959 24.1685 13.9206 24.1685C13.511 24.1697 13.1008 24.1691 12.6913 24.1691C12.6634 24.1691 12.6355 24.1691 12.6041 24.1691C12.6041 23.4098 12.6041 22.6576 12.6041 21.9001Z" fill="#EE4D2D"/>
<path d="M18.7929 25.0091C18.784 25.4442 18.4669 25.8686 18.0235 26.0269C17.3567 26.2651 16.6389 25.8698 16.4919 25.1769C16.4255 24.8627 16.5275 24.5853 16.7272 24.347C16.9951 24.0269 17.3484 23.9054 17.7597 23.9434C18.2244 23.9854 18.6121 24.3002 18.7413 24.7459C18.7656 24.8319 18.7757 24.9214 18.7929 25.0091Z" fill="#EE4D2D"/>
</svg>
